<?xml version="1.0" encoding="UTF-8"?>
<svg id="Layer_1" data-name="Layer 1" xmlns="http://www.w3.org/2000/svg" viewBox="0 0 827.96 860.63">
  <defs>
    <style>
      .cls-1 {
        fill: #fff;
      }
    </style>
  </defs>
  <path class="cls-1" d="M663.4,665.67c-7.21,8.63-15.63,17.2-23.62,25.11-12.5,11.27-23.84,22.43-37.77,31.81-9.28,6.19-18.71,11.75-28.27,16.71-25.54,13.25-51.93,22.14-78.44,26.95-20.24,3.68-40.55,4.99-60.62,4.05-42.2-1.98-83.31-13.88-120.39-34.52-51.17-28.47-94.65-73.59-122.67-132.23-27.24-57.84-35.22-123.96-24.4-186.81,11.35-70.55,45.96-137.41,99.87-184.72,42.96-37.65,96.05-62.94,151.71-75.14,5.32-1.1,10.38-1.92,15.89-2.46,2.92-.33,7.46-.57,8.17-3.92-1.51-18.44-28.39-54.88,3.71-60.27l.12-.02c11.38-1.67,19.56,8.19,28.53,13.56,23.4,15.71,46.9,31.3,70.14,47.26,10,6.62,20.04,13.23,29.84,20.15,4.98,3.62,11.07,6.46,15.04,11.19,5.26,8.06.29,17.86-5.52,24.33-29.14,30.31-64.96,52.96-97.25,79.64-9.1,6.98-24.36,22.62-36.37,20.04-16.99-4.8-2.86-36.94.07-48.05,1.68-6.77,7.88-19.56-4.46-18.48-10.14.85-20.1,2.98-29.92,5.41-75.29,17.65-135.54,78.59-158.92,151.44-25.91,74.33-11.97,161.5,37.9,222.73,5.58,6.9,11.61,13.5,17.98,19.78,7.19,7.1,14.83,13.78,22.76,20.01,7.59,6.08,14.81,12.21,22.62,17.97,14.14,9.41,29.13,17.42,44.87,23.79,11.34,4.76,23.23,8.88,35.27,11.7,3.72.87,7.45,1.72,11.2,2.52,6.87,1.48,13.79,2.83,20.73,3.94,9.7,1.55,19.45,2.65,29.27,3.03,25.26.98,51.22-3.41,75.84-11.75,21.19-7.18,41.4-17.3,59.33-29.43,8.12-5.5,16.53-10.5,24.66-16,2.91-1.93,7.85-5.09,3.08.68Z"/>
  <circle class="cls-1" cx="382.14" cy="413.84" r="59.61"/>
  <path class="cls-1" d="M450.5,551.48v163.71c-3.75-.8-7.48-1.65-11.2-2.52-12.04-2.82-23.93-6.94-35.27-11.7-15.74-6.37-30.73-14.38-44.87-23.79-7.81-5.76-15.04-11.89-22.62-17.97-7.93-6.23-15.57-12.91-22.76-20.01v-87.73c0-36.32,29.44-65.77,65.76-65.77h5.19c36.32,0,65.76,29.45,65.76,65.77Z"/>
  <circle class="cls-1" cx="523.78" cy="484.32" r="45.82"/>
  <path class="cls-1" d="M576.33,589.87v120.54c-24.62,8.34-50.58,12.73-75.84,11.75-9.82-.38-19.57-1.48-29.27-3.03v-129.26c0-27.78,22.52-50.3,50.3-50.3h4.5c27.78,0,50.3,22.52,50.3,50.3Z"/>
</svg>